<mxfile host="app.diagrams.net" agent="Mozilla/5.0 (Windows NT 10.0; Win64; x64) AppleWebKit/537.36 (KHTML, like Gecko) Chrome/129.0.0.0 Safari/537.36 Edg/129.0.0.0" version="24.7.17">
  <diagram name="Page-1" id="X5lvkgiN3U133mV6QOkO">
    <mxGraphModel dx="1683" dy="924" grid="1" gridSize="10" guides="1" tooltips="1" connect="1" arrows="1" fold="1" page="1" pageScale="1" pageWidth="850" pageHeight="1100" math="0" shadow="0">
      <root>
        <mxCell id="0" />
        <mxCell id="1" parent="0" />
        <mxCell id="nhZHOeeMNoCa2xDWZXQW-58" value="" style="group" vertex="1" connectable="0" parent="1">
          <mxGeometry x="226" y="150" width="398" height="801.5" as="geometry" />
        </mxCell>
        <mxCell id="nhZHOeeMNoCa2xDWZXQW-53" value="" style="group" connectable="0" vertex="1" parent="nhZHOeeMNoCa2xDWZXQW-58">
          <mxGeometry x="8" width="390" height="800" as="geometry" />
        </mxCell>
        <mxCell id="nhZHOeeMNoCa2xDWZXQW-17" value="&lt;font style=&quot;font-size: 24px;&quot;&gt;1&#39;&lt;/font&gt;" style="text;strokeColor=none;align=center;fillColor=none;html=1;verticalAlign=middle;whiteSpace=wrap;rounded=0;fontStyle=1" vertex="1" parent="nhZHOeeMNoCa2xDWZXQW-58">
          <mxGeometry y="740" width="15" height="15" as="geometry" />
        </mxCell>
        <mxCell id="nhZHOeeMNoCa2xDWZXQW-18" value="&lt;font style=&quot;font-size: 24px;&quot;&gt;1&#39;&lt;/font&gt;" style="text;strokeColor=none;align=center;fillColor=none;html=1;verticalAlign=middle;whiteSpace=wrap;rounded=0;fontStyle=1" vertex="1" parent="nhZHOeeMNoCa2xDWZXQW-58">
          <mxGeometry x="341" y="740" width="15" height="15" as="geometry" />
        </mxCell>
        <mxCell id="nhZHOeeMNoCa2xDWZXQW-19" value="&lt;font style=&quot;font-size: 24px;&quot;&gt;2&#39;&lt;/font&gt;" style="text;strokeColor=none;align=center;fillColor=none;html=1;verticalAlign=middle;whiteSpace=wrap;rounded=0;fontStyle=1" vertex="1" parent="nhZHOeeMNoCa2xDWZXQW-58">
          <mxGeometry y="690" width="15" height="15" as="geometry" />
        </mxCell>
        <mxCell id="nhZHOeeMNoCa2xDWZXQW-20" value="&lt;font style=&quot;font-size: 24px;&quot;&gt;2&#39;&lt;/font&gt;" style="text;strokeColor=none;align=center;fillColor=none;html=1;verticalAlign=middle;whiteSpace=wrap;rounded=0;fontStyle=1" vertex="1" parent="nhZHOeeMNoCa2xDWZXQW-58">
          <mxGeometry x="341" y="690" width="15" height="15" as="geometry" />
        </mxCell>
        <mxCell id="nhZHOeeMNoCa2xDWZXQW-21" value="&lt;font style=&quot;font-size: 24px;&quot;&gt;3&#39;&lt;/font&gt;" style="text;strokeColor=none;align=center;fillColor=none;html=1;verticalAlign=middle;whiteSpace=wrap;rounded=0;fontStyle=1" vertex="1" parent="nhZHOeeMNoCa2xDWZXQW-58">
          <mxGeometry y="640" width="15" height="15" as="geometry" />
        </mxCell>
        <mxCell id="nhZHOeeMNoCa2xDWZXQW-22" value="&lt;font style=&quot;font-size: 24px;&quot;&gt;3&#39;&lt;/font&gt;" style="text;strokeColor=none;align=center;fillColor=none;html=1;verticalAlign=middle;whiteSpace=wrap;rounded=0;fontStyle=1" vertex="1" parent="nhZHOeeMNoCa2xDWZXQW-58">
          <mxGeometry x="341" y="640" width="15" height="15" as="geometry" />
        </mxCell>
        <mxCell id="nhZHOeeMNoCa2xDWZXQW-23" value="&lt;font style=&quot;font-size: 24px;&quot;&gt;4&#39;&lt;/font&gt;" style="text;strokeColor=none;align=center;fillColor=none;html=1;verticalAlign=middle;whiteSpace=wrap;rounded=0;fontStyle=1" vertex="1" parent="nhZHOeeMNoCa2xDWZXQW-58">
          <mxGeometry y="590" width="15" height="15" as="geometry" />
        </mxCell>
        <mxCell id="nhZHOeeMNoCa2xDWZXQW-24" value="&lt;font style=&quot;font-size: 24px;&quot;&gt;4&#39;&lt;/font&gt;" style="text;strokeColor=none;align=center;fillColor=none;html=1;verticalAlign=middle;whiteSpace=wrap;rounded=0;fontStyle=1" vertex="1" parent="nhZHOeeMNoCa2xDWZXQW-58">
          <mxGeometry x="341" y="590" width="15" height="15" as="geometry" />
        </mxCell>
        <mxCell id="nhZHOeeMNoCa2xDWZXQW-25" value="&lt;font style=&quot;font-size: 24px;&quot;&gt;5&#39;&lt;/font&gt;" style="text;strokeColor=none;align=center;fillColor=none;html=1;verticalAlign=middle;whiteSpace=wrap;rounded=0;fontStyle=1" vertex="1" parent="nhZHOeeMNoCa2xDWZXQW-58">
          <mxGeometry y="540" width="15" height="15" as="geometry" />
        </mxCell>
        <mxCell id="nhZHOeeMNoCa2xDWZXQW-26" value="&lt;font style=&quot;font-size: 24px;&quot;&gt;5&#39;&lt;/font&gt;" style="text;strokeColor=none;align=center;fillColor=none;html=1;verticalAlign=middle;whiteSpace=wrap;rounded=0;fontStyle=1" vertex="1" parent="nhZHOeeMNoCa2xDWZXQW-58">
          <mxGeometry x="341" y="540" width="15" height="15" as="geometry" />
        </mxCell>
        <mxCell id="nhZHOeeMNoCa2xDWZXQW-27" value="&lt;font style=&quot;font-size: 24px;&quot;&gt;6&#39;&lt;/font&gt;" style="text;strokeColor=none;align=center;fillColor=none;html=1;verticalAlign=middle;whiteSpace=wrap;rounded=0;fontStyle=1" vertex="1" parent="nhZHOeeMNoCa2xDWZXQW-58">
          <mxGeometry y="490" width="15" height="15" as="geometry" />
        </mxCell>
        <mxCell id="nhZHOeeMNoCa2xDWZXQW-28" value="&lt;font style=&quot;font-size: 24px;&quot;&gt;6&#39;&lt;/font&gt;" style="text;strokeColor=none;align=center;fillColor=none;html=1;verticalAlign=middle;whiteSpace=wrap;rounded=0;fontStyle=1" vertex="1" parent="nhZHOeeMNoCa2xDWZXQW-58">
          <mxGeometry x="341" y="490" width="15" height="15" as="geometry" />
        </mxCell>
        <mxCell id="nhZHOeeMNoCa2xDWZXQW-34" value="&lt;font style=&quot;font-size: 24px;&quot;&gt;7&#39;&lt;/font&gt;" style="text;strokeColor=none;align=center;fillColor=none;html=1;verticalAlign=middle;whiteSpace=wrap;rounded=0;fontStyle=1" vertex="1" parent="nhZHOeeMNoCa2xDWZXQW-58">
          <mxGeometry y="440" width="15" height="15" as="geometry" />
        </mxCell>
        <mxCell id="nhZHOeeMNoCa2xDWZXQW-35" value="&lt;font style=&quot;font-size: 24px;&quot;&gt;7&#39;&lt;/font&gt;" style="text;strokeColor=none;align=center;fillColor=none;html=1;verticalAlign=middle;whiteSpace=wrap;rounded=0;fontStyle=1" vertex="1" parent="nhZHOeeMNoCa2xDWZXQW-58">
          <mxGeometry x="341" y="440" width="15" height="15" as="geometry" />
        </mxCell>
        <mxCell id="nhZHOeeMNoCa2xDWZXQW-36" value="&lt;font style=&quot;font-size: 24px;&quot;&gt;8&#39;&lt;/font&gt;" style="text;strokeColor=none;align=center;fillColor=none;html=1;verticalAlign=middle;whiteSpace=wrap;rounded=0;fontStyle=1" vertex="1" parent="nhZHOeeMNoCa2xDWZXQW-58">
          <mxGeometry y="390" width="15" height="15" as="geometry" />
        </mxCell>
        <mxCell id="nhZHOeeMNoCa2xDWZXQW-37" value="&lt;font style=&quot;font-size: 24px;&quot;&gt;8&#39;&lt;/font&gt;" style="text;strokeColor=none;align=center;fillColor=none;html=1;verticalAlign=middle;whiteSpace=wrap;rounded=0;fontStyle=1" vertex="1" parent="nhZHOeeMNoCa2xDWZXQW-58">
          <mxGeometry x="341" y="390" width="15" height="15" as="geometry" />
        </mxCell>
        <mxCell id="nhZHOeeMNoCa2xDWZXQW-38" value="&lt;font style=&quot;font-size: 24px;&quot;&gt;9&#39;&lt;/font&gt;" style="text;strokeColor=none;align=center;fillColor=none;html=1;verticalAlign=middle;whiteSpace=wrap;rounded=0;fontStyle=1" vertex="1" parent="nhZHOeeMNoCa2xDWZXQW-58">
          <mxGeometry y="340" width="15" height="15" as="geometry" />
        </mxCell>
        <mxCell id="nhZHOeeMNoCa2xDWZXQW-39" value="&lt;font style=&quot;font-size: 24px;&quot;&gt;9&#39;&lt;/font&gt;" style="text;strokeColor=none;align=center;fillColor=none;html=1;verticalAlign=middle;whiteSpace=wrap;rounded=0;fontStyle=1" vertex="1" parent="nhZHOeeMNoCa2xDWZXQW-58">
          <mxGeometry x="341" y="340" width="15" height="15" as="geometry" />
        </mxCell>
        <mxCell id="nhZHOeeMNoCa2xDWZXQW-40" value="&lt;font style=&quot;font-size: 24px;&quot;&gt;10&#39;&lt;/font&gt;" style="text;strokeColor=none;align=center;fillColor=none;html=1;verticalAlign=middle;whiteSpace=wrap;rounded=0;fontStyle=1" vertex="1" parent="nhZHOeeMNoCa2xDWZXQW-58">
          <mxGeometry y="290" width="15" height="15" as="geometry" />
        </mxCell>
        <mxCell id="nhZHOeeMNoCa2xDWZXQW-41" value="&lt;font style=&quot;font-size: 24px;&quot;&gt;10&#39;&lt;/font&gt;" style="text;strokeColor=none;align=center;fillColor=none;html=1;verticalAlign=middle;whiteSpace=wrap;rounded=0;fontStyle=1" vertex="1" parent="nhZHOeeMNoCa2xDWZXQW-58">
          <mxGeometry x="341" y="290" width="15" height="15" as="geometry" />
        </mxCell>
        <mxCell id="nhZHOeeMNoCa2xDWZXQW-42" value="&lt;font style=&quot;font-size: 24px;&quot;&gt;11&#39;&lt;/font&gt;" style="text;strokeColor=none;align=center;fillColor=none;html=1;verticalAlign=middle;whiteSpace=wrap;rounded=0;fontStyle=1" vertex="1" parent="nhZHOeeMNoCa2xDWZXQW-58">
          <mxGeometry y="240" width="15" height="15" as="geometry" />
        </mxCell>
        <mxCell id="nhZHOeeMNoCa2xDWZXQW-43" value="&lt;font style=&quot;font-size: 24px;&quot;&gt;11&#39;&lt;/font&gt;" style="text;strokeColor=none;align=center;fillColor=none;html=1;verticalAlign=middle;whiteSpace=wrap;rounded=0;fontStyle=1" vertex="1" parent="nhZHOeeMNoCa2xDWZXQW-58">
          <mxGeometry x="341" y="240" width="15" height="15" as="geometry" />
        </mxCell>
        <mxCell id="nhZHOeeMNoCa2xDWZXQW-44" value="&lt;font style=&quot;font-size: 24px;&quot;&gt;12&#39;&lt;/font&gt;" style="text;strokeColor=none;align=center;fillColor=none;html=1;verticalAlign=middle;whiteSpace=wrap;rounded=0;fontStyle=1" vertex="1" parent="nhZHOeeMNoCa2xDWZXQW-58">
          <mxGeometry y="190" width="15" height="15" as="geometry" />
        </mxCell>
        <mxCell id="nhZHOeeMNoCa2xDWZXQW-45" value="&lt;font style=&quot;font-size: 24px;&quot;&gt;12&#39;&lt;/font&gt;" style="text;strokeColor=none;align=center;fillColor=none;html=1;verticalAlign=middle;whiteSpace=wrap;rounded=0;fontStyle=1" vertex="1" parent="nhZHOeeMNoCa2xDWZXQW-58">
          <mxGeometry x="341" y="190" width="15" height="15" as="geometry" />
        </mxCell>
        <mxCell id="nhZHOeeMNoCa2xDWZXQW-46" value="&lt;font style=&quot;font-size: 24px;&quot;&gt;13&#39;&lt;/font&gt;" style="text;strokeColor=none;align=center;fillColor=none;html=1;verticalAlign=middle;whiteSpace=wrap;rounded=0;fontStyle=1" vertex="1" parent="nhZHOeeMNoCa2xDWZXQW-58">
          <mxGeometry y="140" width="15" height="15" as="geometry" />
        </mxCell>
        <mxCell id="nhZHOeeMNoCa2xDWZXQW-47" value="&lt;font style=&quot;font-size: 24px;&quot;&gt;13&#39;&lt;/font&gt;" style="text;strokeColor=none;align=center;fillColor=none;html=1;verticalAlign=middle;whiteSpace=wrap;rounded=0;fontStyle=1" vertex="1" parent="nhZHOeeMNoCa2xDWZXQW-58">
          <mxGeometry x="341" y="140" width="15" height="15" as="geometry" />
        </mxCell>
        <mxCell id="nhZHOeeMNoCa2xDWZXQW-48" value="&lt;font style=&quot;font-size: 24px;&quot;&gt;14&#39;&lt;/font&gt;" style="text;strokeColor=none;align=center;fillColor=none;html=1;verticalAlign=middle;whiteSpace=wrap;rounded=0;fontStyle=1" vertex="1" parent="nhZHOeeMNoCa2xDWZXQW-58">
          <mxGeometry y="95" width="15" height="15" as="geometry" />
        </mxCell>
        <mxCell id="nhZHOeeMNoCa2xDWZXQW-49" value="&lt;font style=&quot;font-size: 24px;&quot;&gt;14&#39;&lt;/font&gt;" style="text;strokeColor=none;align=center;fillColor=none;html=1;verticalAlign=middle;whiteSpace=wrap;rounded=0;fontStyle=1" vertex="1" parent="nhZHOeeMNoCa2xDWZXQW-58">
          <mxGeometry x="341" y="95" width="15" height="15" as="geometry" />
        </mxCell>
        <mxCell id="nhZHOeeMNoCa2xDWZXQW-1" value="" style="rounded=0;whiteSpace=wrap;html=1;" vertex="1" parent="nhZHOeeMNoCa2xDWZXQW-58">
          <mxGeometry x="28" y="100" width="300" height="700" as="geometry" />
        </mxCell>
        <mxCell id="nhZHOeeMNoCa2xDWZXQW-7" value="" style="endArrow=none;html=1;rounded=0;exitX=0;exitY=0.1;exitDx=0;exitDy=0;exitPerimeter=0;entryX=1;entryY=0.102;entryDx=0;entryDy=0;entryPerimeter=0;" edge="1" parent="nhZHOeeMNoCa2xDWZXQW-58">
          <mxGeometry width="50" height="50" relative="1" as="geometry">
            <mxPoint x="28" y="150" as="sourcePoint" />
            <mxPoint x="328" y="150" as="targetPoint" />
          </mxGeometry>
        </mxCell>
        <mxCell id="nhZHOeeMNoCa2xDWZXQW-8" value="" style="endArrow=none;html=1;rounded=0;entryX=1;entryY=0.202;entryDx=0;entryDy=0;entryPerimeter=0;" edge="1" parent="nhZHOeeMNoCa2xDWZXQW-58">
          <mxGeometry width="50" height="50" relative="1" as="geometry">
            <mxPoint x="28" y="200" as="sourcePoint" />
            <mxPoint x="328" y="200" as="targetPoint" />
          </mxGeometry>
        </mxCell>
        <mxCell id="nhZHOeeMNoCa2xDWZXQW-9" value="" style="endArrow=none;html=1;rounded=0;exitX=0;exitY=0.295;exitDx=0;exitDy=0;exitPerimeter=0;entryX=1;entryY=0.296;entryDx=0;entryDy=0;entryPerimeter=0;" edge="1" parent="nhZHOeeMNoCa2xDWZXQW-58">
          <mxGeometry width="50" height="50" relative="1" as="geometry">
            <mxPoint x="28" y="250" as="sourcePoint" />
            <mxPoint x="328" y="250" as="targetPoint" />
          </mxGeometry>
        </mxCell>
        <mxCell id="nhZHOeeMNoCa2xDWZXQW-10" value="" style="endArrow=none;html=1;rounded=0;entryX=1;entryY=0.396;entryDx=0;entryDy=0;entryPerimeter=0;" edge="1" parent="nhZHOeeMNoCa2xDWZXQW-58">
          <mxGeometry width="50" height="50" relative="1" as="geometry">
            <mxPoint x="28" y="300" as="sourcePoint" />
            <mxPoint x="328" y="300" as="targetPoint" />
          </mxGeometry>
        </mxCell>
        <mxCell id="nhZHOeeMNoCa2xDWZXQW-11" value="" style="endArrow=none;html=1;rounded=0;exitX=0;exitY=0.5;exitDx=0;exitDy=0;entryX=1;entryY=0.5;entryDx=0;entryDy=0;" edge="1" parent="nhZHOeeMNoCa2xDWZXQW-58">
          <mxGeometry width="50" height="50" relative="1" as="geometry">
            <mxPoint x="28" y="350" as="sourcePoint" />
            <mxPoint x="328" y="350" as="targetPoint" />
          </mxGeometry>
        </mxCell>
        <mxCell id="nhZHOeeMNoCa2xDWZXQW-13" value="" style="endArrow=none;html=1;rounded=0;entryX=1;entryY=0.696;entryDx=0;entryDy=0;entryPerimeter=0;" edge="1" parent="nhZHOeeMNoCa2xDWZXQW-58">
          <mxGeometry width="50" height="50" relative="1" as="geometry">
            <mxPoint x="28" y="450" as="sourcePoint" />
            <mxPoint x="328" y="450" as="targetPoint" />
          </mxGeometry>
        </mxCell>
        <mxCell id="nhZHOeeMNoCa2xDWZXQW-14" value="" style="endArrow=none;html=1;rounded=0;entryX=1;entryY=0.796;entryDx=0;entryDy=0;entryPerimeter=0;exitX=0;exitY=0.797;exitDx=0;exitDy=0;exitPerimeter=0;" edge="1" parent="nhZHOeeMNoCa2xDWZXQW-58">
          <mxGeometry width="50" height="50" relative="1" as="geometry">
            <mxPoint x="28" y="500" as="sourcePoint" />
            <mxPoint x="328" y="500" as="targetPoint" />
          </mxGeometry>
        </mxCell>
        <mxCell id="nhZHOeeMNoCa2xDWZXQW-15" value="" style="endArrow=none;html=1;rounded=0;exitX=0;exitY=0.895;exitDx=0;exitDy=0;exitPerimeter=0;" edge="1" parent="nhZHOeeMNoCa2xDWZXQW-58">
          <mxGeometry width="50" height="50" relative="1" as="geometry">
            <mxPoint x="28" y="550" as="sourcePoint" />
            <mxPoint x="328" y="550" as="targetPoint" />
          </mxGeometry>
        </mxCell>
        <mxCell id="nhZHOeeMNoCa2xDWZXQW-29" value="" style="endArrow=none;html=1;rounded=0;exitX=0;exitY=0.5;exitDx=0;exitDy=0;entryX=1;entryY=0.5;entryDx=0;entryDy=0;" edge="1" parent="nhZHOeeMNoCa2xDWZXQW-58">
          <mxGeometry width="50" height="50" relative="1" as="geometry">
            <mxPoint x="28" y="400" as="sourcePoint" />
            <mxPoint x="328" y="400" as="targetPoint" />
          </mxGeometry>
        </mxCell>
        <mxCell id="nhZHOeeMNoCa2xDWZXQW-30" value="" style="endArrow=none;html=1;rounded=0;exitX=0;exitY=0.895;exitDx=0;exitDy=0;exitPerimeter=0;strokeWidth=5;" edge="1" parent="nhZHOeeMNoCa2xDWZXQW-58">
          <mxGeometry width="50" height="50" relative="1" as="geometry">
            <mxPoint x="28" y="600" as="sourcePoint" />
            <mxPoint x="328" y="600" as="targetPoint" />
          </mxGeometry>
        </mxCell>
        <mxCell id="nhZHOeeMNoCa2xDWZXQW-31" value="" style="endArrow=none;html=1;rounded=0;exitX=0;exitY=0.895;exitDx=0;exitDy=0;exitPerimeter=0;" edge="1" parent="nhZHOeeMNoCa2xDWZXQW-58">
          <mxGeometry width="50" height="50" relative="1" as="geometry">
            <mxPoint x="28" y="650" as="sourcePoint" />
            <mxPoint x="328" y="650" as="targetPoint" />
          </mxGeometry>
        </mxCell>
        <mxCell id="nhZHOeeMNoCa2xDWZXQW-32" value="" style="endArrow=none;html=1;rounded=0;exitX=0;exitY=0.895;exitDx=0;exitDy=0;exitPerimeter=0;" edge="1" parent="nhZHOeeMNoCa2xDWZXQW-58">
          <mxGeometry width="50" height="50" relative="1" as="geometry">
            <mxPoint x="28" y="700" as="sourcePoint" />
            <mxPoint x="328" y="700" as="targetPoint" />
          </mxGeometry>
        </mxCell>
        <mxCell id="nhZHOeeMNoCa2xDWZXQW-33" value="" style="endArrow=none;html=1;rounded=0;exitX=0;exitY=0.895;exitDx=0;exitDy=0;exitPerimeter=0;" edge="1" parent="nhZHOeeMNoCa2xDWZXQW-58">
          <mxGeometry width="50" height="50" relative="1" as="geometry">
            <mxPoint x="28" y="750" as="sourcePoint" />
            <mxPoint x="328" y="750" as="targetPoint" />
          </mxGeometry>
        </mxCell>
        <mxCell id="nhZHOeeMNoCa2xDWZXQW-51" value="&lt;font style=&quot;font-size: 24px;&quot;&gt;15&#39;&lt;/font&gt;" style="text;strokeColor=none;align=center;fillColor=none;html=1;verticalAlign=middle;whiteSpace=wrap;rounded=0;fontStyle=1" vertex="1" parent="nhZHOeeMNoCa2xDWZXQW-58">
          <mxGeometry x="68.28571428571428" y="41" width="12.857142857142856" height="15" as="geometry" />
        </mxCell>
        <mxCell id="nhZHOeeMNoCa2xDWZXQW-52" value="&lt;font style=&quot;font-size: 24px;&quot;&gt;15&#39;&lt;/font&gt;" style="text;strokeColor=none;align=center;fillColor=none;html=1;verticalAlign=middle;whiteSpace=wrap;rounded=0;fontStyle=1" vertex="1" parent="nhZHOeeMNoCa2xDWZXQW-58">
          <mxGeometry x="274.85714285714283" y="41" width="12.857142857142856" height="15" as="geometry" />
        </mxCell>
        <mxCell id="nhZHOeeMNoCa2xDWZXQW-54" value="" style="triangle;whiteSpace=wrap;html=1;rotation=-90;" vertex="1" parent="nhZHOeeMNoCa2xDWZXQW-58">
          <mxGeometry x="128" y="-100" width="100" height="300" as="geometry" />
        </mxCell>
        <mxCell id="nhZHOeeMNoCa2xDWZXQW-55" value="" style="endArrow=none;html=1;rounded=0;exitX=0.5;exitY=0;exitDx=0;exitDy=0;entryX=0.5;entryY=1;entryDx=0;entryDy=0;" edge="1" parent="nhZHOeeMNoCa2xDWZXQW-58" source="nhZHOeeMNoCa2xDWZXQW-54" target="nhZHOeeMNoCa2xDWZXQW-54">
          <mxGeometry width="50" height="50" relative="1" as="geometry">
            <mxPoint x="178" y="90" as="sourcePoint" />
            <mxPoint x="228" y="40" as="targetPoint" />
          </mxGeometry>
        </mxCell>
        <mxCell id="nhZHOeeMNoCa2xDWZXQW-59" value="&lt;b&gt;IEM Box&lt;/b&gt;&lt;div&gt;&lt;b&gt;&lt;br&gt;&lt;/b&gt;&lt;/div&gt;&lt;div&gt;&lt;b&gt;&lt;br&gt;&lt;/b&gt;&lt;div&gt;&lt;div&gt;&lt;b&gt;Subwoofers&lt;/b&gt;&lt;/div&gt;&lt;/div&gt;&lt;div&gt;&lt;b&gt;PA Speakers&lt;/b&gt;&lt;/div&gt;&lt;/div&gt;" style="rounded=0;whiteSpace=wrap;html=1;opacity=50;fillColor=#e1d5e7;strokeColor=#9673a6;" vertex="1" parent="nhZHOeeMNoCa2xDWZXQW-58">
          <mxGeometry x="28" y="549.5" width="300" height="100" as="geometry" />
        </mxCell>
        <mxCell id="nhZHOeeMNoCa2xDWZXQW-63" value="&lt;b&gt;Drum Rack&lt;/b&gt;&lt;div&gt;&lt;b&gt;Drum Rug&lt;/b&gt;&lt;/div&gt;&lt;div&gt;&lt;b&gt;Miscellaneous&lt;/b&gt;&lt;/div&gt;" style="whiteSpace=wrap;html=1;fillColor=#d5e8d4;strokeColor=#82b366;opacity=50;" vertex="1" parent="nhZHOeeMNoCa2xDWZXQW-58">
          <mxGeometry x="28" y="649.5" width="300" height="150" as="geometry" />
        </mxCell>
        <mxCell id="nhZHOeeMNoCa2xDWZXQW-57" value="" style="triangle;whiteSpace=wrap;html=1;rotation=-90;opacity=50;fillColor=#d5e8d4;strokeColor=#82b366;" vertex="1" parent="nhZHOeeMNoCa2xDWZXQW-58">
          <mxGeometry x="128" y="-100" width="100" height="300" as="geometry" />
        </mxCell>
        <mxCell id="nhZHOeeMNoCa2xDWZXQW-61" value="&lt;b&gt;Drum Cases&lt;/b&gt;&lt;div&gt;&lt;b&gt;Cymbal Cases&lt;/b&gt;&lt;/div&gt;" style="text;strokeColor=none;align=center;fillColor=none;html=1;verticalAlign=middle;whiteSpace=wrap;rounded=0;" vertex="1" parent="nhZHOeeMNoCa2xDWZXQW-58">
          <mxGeometry x="100" y="63" width="150" height="30" as="geometry" />
        </mxCell>
        <mxCell id="nhZHOeeMNoCa2xDWZXQW-64" value="" style="whiteSpace=wrap;html=1;fillColor=#d5e8d4;strokeColor=#82b366;opacity=50;" vertex="1" parent="nhZHOeeMNoCa2xDWZXQW-58">
          <mxGeometry x="28" y="100" width="300" height="50" as="geometry" />
        </mxCell>
        <mxCell id="nhZHOeeMNoCa2xDWZXQW-65" value="&lt;b&gt;Keyboard Stand&lt;/b&gt;&lt;div&gt;&lt;b&gt;Keyboard Throne&lt;/b&gt;&lt;/div&gt;" style="whiteSpace=wrap;html=1;fillColor=#f8cecc;strokeColor=#b85450;opacity=50;" vertex="1" parent="nhZHOeeMNoCa2xDWZXQW-58">
          <mxGeometry x="28" y="149.5" width="300" height="100" as="geometry" />
        </mxCell>
        <mxCell id="nhZHOeeMNoCa2xDWZXQW-66" value="&lt;b&gt;Microphone Case&lt;/b&gt;&lt;div&gt;&lt;b&gt;Utility Case&lt;/b&gt;&lt;/div&gt;&lt;div&gt;&lt;b&gt;Mallory DI Box&lt;/b&gt;&lt;/div&gt;&lt;div&gt;&lt;b&gt;Mallory IEM Box&lt;/b&gt;&lt;/div&gt;" style="whiteSpace=wrap;html=1;fillColor=#e1d5e7;strokeColor=#9673a6;opacity=50;" vertex="1" parent="nhZHOeeMNoCa2xDWZXQW-58">
          <mxGeometry x="28" y="249.5" width="300" height="100" as="geometry" />
        </mxCell>
        <mxCell id="nhZHOeeMNoCa2xDWZXQW-67" value="&lt;b&gt;Guitar Cases&lt;/b&gt;&lt;div&gt;&lt;b&gt;Bass Case&lt;/b&gt;&lt;/div&gt;&lt;div&gt;&lt;b&gt;Guitar Stand Case&lt;/b&gt;&lt;/div&gt;&lt;div&gt;&lt;b&gt;Pedal Cases&lt;/b&gt;&lt;/div&gt;" style="whiteSpace=wrap;html=1;fillColor=#dae8fc;strokeColor=#6c8ebf;opacity=50;" vertex="1" parent="nhZHOeeMNoCa2xDWZXQW-58">
          <mxGeometry x="28" y="450.5" width="300" height="100" as="geometry" />
        </mxCell>
        <mxCell id="nhZHOeeMNoCa2xDWZXQW-68" value="&lt;b&gt;Hanging Mic Stand Bases&lt;/b&gt;&lt;div&gt;&lt;b&gt;Band XLR Cable Box&lt;/b&gt;&lt;/div&gt;&lt;div&gt;&lt;b&gt;Snake Box&lt;/b&gt;&lt;/div&gt;&lt;div&gt;&lt;b&gt;Drum Equipment Box&lt;/b&gt;&lt;/div&gt;&lt;div&gt;&lt;b&gt;Drum XLR Cable Box&lt;/b&gt;&lt;/div&gt;&lt;div&gt;&lt;b&gt;Power Stip Box&lt;/b&gt;&lt;/div&gt;&lt;div&gt;&lt;b&gt;Drum Throne, Hardware, Fan&lt;/b&gt;&lt;/div&gt;" style="whiteSpace=wrap;html=1;fillColor=#fff2cc;strokeColor=#d6b656;opacity=50;" vertex="1" parent="nhZHOeeMNoCa2xDWZXQW-58">
          <mxGeometry x="28" y="350.75" width="300" height="100" as="geometry" />
        </mxCell>
      </root>
    </mxGraphModel>
  </diagram>
</mxfile>
